<svg xmlns="http://www.w3.org/2000/svg" width="176" height="176" viewBox="0 0 176 176">
  <g id="dot" transform="translate(176) rotate(90)" opacity="0.5">
    <g id="row_01" data-name="row 01">
      <circle id="Ellipse_5" data-name="Ellipse 5" cx="4" cy="4" r="4" fill="#184377"/>
      <circle id="Ellipse_6" data-name="Ellipse 6" cx="4" cy="4" r="4" transform="translate(0 24)" fill="#184377"/>
      <circle id="Ellipse_7" data-name="Ellipse 7" cx="4" cy="4" r="4" transform="translate(0 48)" fill="#184377"/>
      <circle id="Ellipse_8" data-name="Ellipse 8" cx="4" cy="4" r="4" transform="translate(0 72)" fill="#184377"/>
      <circle id="Ellipse_9" data-name="Ellipse 9" cx="4" cy="4" r="4" transform="translate(0 96)" fill="#184377"/>
      <circle id="Ellipse_10" data-name="Ellipse 10" cx="4" cy="4" r="4" transform="translate(0 120)" fill="#184377"/>
      <circle id="Ellipse_11" data-name="Ellipse 11" cx="4" cy="4" r="4" transform="translate(0 144)" fill="#184377"/>
      <circle id="Ellipse_12" data-name="Ellipse 12" cx="4" cy="4" r="4" transform="translate(0 168)" fill="#184377"/>
    </g>
    <g id="row_02" data-name="row 02" transform="translate(24)">
      <circle id="Ellipse_5-2" data-name="Ellipse 5" cx="4" cy="4" r="4" fill="#184377"/>
      <circle id="Ellipse_6-2" data-name="Ellipse 6" cx="4" cy="4" r="4" transform="translate(0 24)" fill="#184377"/>
      <circle id="Ellipse_7-2" data-name="Ellipse 7" cx="4" cy="4" r="4" transform="translate(0 48)" fill="#184377"/>
      <circle id="Ellipse_8-2" data-name="Ellipse 8" cx="4" cy="4" r="4" transform="translate(0 72)" fill="#184377"/>
      <circle id="Ellipse_9-2" data-name="Ellipse 9" cx="4" cy="4" r="4" transform="translate(0 96)" fill="#184377"/>
      <circle id="Ellipse_10-2" data-name="Ellipse 10" cx="4" cy="4" r="4" transform="translate(0 120)" fill="#184377"/>
      <circle id="Ellipse_11-2" data-name="Ellipse 11" cx="4" cy="4" r="4" transform="translate(0 144)" fill="#184377"/>
      <circle id="Ellipse_12-2" data-name="Ellipse 12" cx="4" cy="4" r="4" transform="translate(0 168)" fill="#184377"/>
    </g>
    <g id="row_03" data-name="row 03" transform="translate(48)">
      <circle id="Ellipse_5-3" data-name="Ellipse 5" cx="4" cy="4" r="4" fill="#184377"/>
      <circle id="Ellipse_6-3" data-name="Ellipse 6" cx="4" cy="4" r="4" transform="translate(0 24)" fill="#184377"/>
      <circle id="Ellipse_7-3" data-name="Ellipse 7" cx="4" cy="4" r="4" transform="translate(0 48)" fill="#184377"/>
      <circle id="Ellipse_8-3" data-name="Ellipse 8" cx="4" cy="4" r="4" transform="translate(0 72)" fill="#184377"/>
      <circle id="Ellipse_9-3" data-name="Ellipse 9" cx="4" cy="4" r="4" transform="translate(0 96)" fill="#184377"/>
      <circle id="Ellipse_10-3" data-name="Ellipse 10" cx="4" cy="4" r="4" transform="translate(0 120)" fill="#184377"/>
      <circle id="Ellipse_11-3" data-name="Ellipse 11" cx="4" cy="4" r="4" transform="translate(0 144)" fill="#184377"/>
      <circle id="Ellipse_12-3" data-name="Ellipse 12" cx="4" cy="4" r="4" transform="translate(0 168)" fill="#184377"/>
    </g>
    <g id="row_04" data-name="row 04" transform="translate(72)">
      <circle id="Ellipse_9-4" data-name="Ellipse 9" cx="4" cy="4" r="4" fill="#184377"/>
      <circle id="Ellipse_10-4" data-name="Ellipse 10" cx="4" cy="4" r="4" transform="translate(0 24)" fill="#184377"/>
      <circle id="Ellipse_11-4" data-name="Ellipse 11" cx="4" cy="4" r="4" transform="translate(0 48)" fill="#184377"/>
      <circle id="Ellipse_12-4" data-name="Ellipse 12" cx="4" cy="4" r="4" transform="translate(0 72)" fill="#184377"/>
      <circle id="Ellipse_5-4" data-name="Ellipse 5" cx="4" cy="4" r="4" transform="translate(0 96)" fill="#184377"/>
      <circle id="Ellipse_6-4" data-name="Ellipse 6" cx="4" cy="4" r="4" transform="translate(0 120)" fill="#184377"/>
      <circle id="Ellipse_7-4" data-name="Ellipse 7" cx="4" cy="4" r="4" transform="translate(0 144)" fill="#184377"/>
      <circle id="Ellipse_8-4" data-name="Ellipse 8" cx="4" cy="4" r="4" transform="translate(0 168)" fill="#184377"/>
    </g>
    <g id="row_05" data-name="row 05" transform="translate(96)">
      <circle id="Ellipse_9-5" data-name="Ellipse 9" cx="4" cy="4" r="4" fill="#184377"/>
      <circle id="Ellipse_10-5" data-name="Ellipse 10" cx="4" cy="4" r="4" transform="translate(0 24)" fill="#184377"/>
      <circle id="Ellipse_11-5" data-name="Ellipse 11" cx="4" cy="4" r="4" transform="translate(0 48)" fill="#184377"/>
      <circle id="Ellipse_12-5" data-name="Ellipse 12" cx="4" cy="4" r="4" transform="translate(0 72)" fill="#184377"/>
      <circle id="Ellipse_5-5" data-name="Ellipse 5" cx="4" cy="4" r="4" transform="translate(0 96)" fill="#184377"/>
      <circle id="Ellipse_6-5" data-name="Ellipse 6" cx="4" cy="4" r="4" transform="translate(0 120)" fill="#184377"/>
      <circle id="Ellipse_7-5" data-name="Ellipse 7" cx="4" cy="4" r="4" transform="translate(0 144)" fill="#184377"/>
      <circle id="Ellipse_8-5" data-name="Ellipse 8" cx="4" cy="4" r="4" transform="translate(0 168)" fill="#184377"/>
    </g>
    <g id="row_06" data-name="row 06" transform="translate(120)">
      <circle id="Ellipse_9-6" data-name="Ellipse 9" cx="4" cy="4" r="4" fill="#184377"/>
      <circle id="Ellipse_10-6" data-name="Ellipse 10" cx="4" cy="4" r="4" transform="translate(0 24)" fill="#184377"/>
      <circle id="Ellipse_11-6" data-name="Ellipse 11" cx="4" cy="4" r="4" transform="translate(0 48)" fill="#184377"/>
      <circle id="Ellipse_12-6" data-name="Ellipse 12" cx="4" cy="4" r="4" transform="translate(0 72)" fill="#184377"/>
      <circle id="Ellipse_5-6" data-name="Ellipse 5" cx="4" cy="4" r="4" transform="translate(0 96)" fill="#184377"/>
      <circle id="Ellipse_6-6" data-name="Ellipse 6" cx="4" cy="4" r="4" transform="translate(0 120)" fill="#184377"/>
      <circle id="Ellipse_7-6" data-name="Ellipse 7" cx="4" cy="4" r="4" transform="translate(0 144)" fill="#184377"/>
      <circle id="Ellipse_8-6" data-name="Ellipse 8" cx="4" cy="4" r="4" transform="translate(0 168)" fill="#184377"/>
    </g>
    <g id="row_07" data-name="row 07" transform="translate(144)">
      <circle id="Ellipse_9-7" data-name="Ellipse 9" cx="4" cy="4" r="4" fill="#184377"/>
      <circle id="Ellipse_10-7" data-name="Ellipse 10" cx="4" cy="4" r="4" transform="translate(0 24)" fill="#184377"/>
      <circle id="Ellipse_11-7" data-name="Ellipse 11" cx="4" cy="4" r="4" transform="translate(0 48)" fill="#184377"/>
      <circle id="Ellipse_12-7" data-name="Ellipse 12" cx="4" cy="4" r="4" transform="translate(0 72)" fill="#184377"/>
      <circle id="Ellipse_5-7" data-name="Ellipse 5" cx="4" cy="4" r="4" transform="translate(0 96)" fill="#184377"/>
      <circle id="Ellipse_6-7" data-name="Ellipse 6" cx="4" cy="4" r="4" transform="translate(0 120)" fill="#184377"/>
      <circle id="Ellipse_7-7" data-name="Ellipse 7" cx="4" cy="4" r="4" transform="translate(0 144)" fill="#184377"/>
      <circle id="Ellipse_8-7" data-name="Ellipse 8" cx="4" cy="4" r="4" transform="translate(0 168)" fill="#184377"/>
    </g>
    <g id="row_08" data-name="row 08" transform="translate(168)">
      <circle id="Ellipse_9-8" data-name="Ellipse 9" cx="4" cy="4" r="4" fill="#184377"/>
      <circle id="Ellipse_10-8" data-name="Ellipse 10" cx="4" cy="4" r="4" transform="translate(0 24)" fill="#184377"/>
      <circle id="Ellipse_11-8" data-name="Ellipse 11" cx="4" cy="4" r="4" transform="translate(0 48)" fill="#184377"/>
      <circle id="Ellipse_12-8" data-name="Ellipse 12" cx="4" cy="4" r="4" transform="translate(0 72)" fill="#184377"/>
      <circle id="Ellipse_5-8" data-name="Ellipse 5" cx="4" cy="4" r="4" transform="translate(0 96)" fill="#184377"/>
      <circle id="Ellipse_6-8" data-name="Ellipse 6" cx="4" cy="4" r="4" transform="translate(0 120)" fill="#184377"/>
      <circle id="Ellipse_7-8" data-name="Ellipse 7" cx="4" cy="4" r="4" transform="translate(0 144)" fill="#184377"/>
      <circle id="Ellipse_8-8" data-name="Ellipse 8" cx="4" cy="4" r="4" transform="translate(0 168)" fill="#184377"/>
    </g>
  </g>
</svg>
