<svg id="icon-verify-user" xmlns="http://www.w3.org/2000/svg" width="18.886" height="18.658" viewBox="0 0 18.886 18.658">
  <circle id="Ellipse_3" data-name="Ellipse 3" cx="4.109" cy="4.109" r="4.109" transform="translate(5.87 5.367)" fill="#fff"/>
  <path id="high-quality" d="M26.638,19.3l1.2.9a1.91,1.91,0,0,0,1.083.394l1.5.083A1.967,1.967,0,0,1,32.244,22.2l.342,1.459a1.91,1.91,0,0,0,.576,1l1.093,1.025a1.967,1.967,0,0,1,.414,2.35l-.676,1.337a1.91,1.91,0,0,0-.2,1.134L33.97,32a1.967,1.967,0,0,1-1.193,2.066l-1.377.59a1.91,1.91,0,0,0-.882.74l-.82,1.254a1.967,1.967,0,0,1-2.242.816l-1.434-.433a1.91,1.91,0,0,0-1.152,0l-1.434.433a1.967,1.967,0,0,1-2.242-.816l-.82-1.254a1.91,1.91,0,0,0-.882-.74l-1.377-.59A1.967,1.967,0,0,1,16.919,32l.178-1.488a1.91,1.91,0,0,0-.2-1.134l-.676-1.337a1.967,1.967,0,0,1,.414-2.35l1.093-1.025a1.91,1.91,0,0,0,.576-1l.342-1.459a1.967,1.967,0,0,1,1.828-1.534l1.5-.083a1.91,1.91,0,0,0,1.083-.394l1.2-.9a1.967,1.967,0,0,1,2.386,0Zm-1.958,9.44-1.3-1.3a.864.864,0,0,0-1.222,1.222l1.915,1.915a.864.864,0,0,0,1.222,0c1.154-1.154,2.295-2.321,3.444-3.48a.862.862,0,1,0-1.224-1.216Zm.765-6.949a6.435,6.435,0,1,0,4.55,1.885A6.415,6.415,0,0,0,25.445,21.787Zm4.1,2.33a5.805,5.805,0,1,0,1.7,4.105A5.787,5.787,0,0,0,29.55,24.117Z" transform="translate(-16.002 -18.893)" fill="#5986f1" fill-rule="evenodd"/>
</svg>
