<svg id="icon-recommendations-status" xmlns="http://www.w3.org/2000/svg" width="22.89" height="22.793" viewBox="0 0 22.89 22.793">
  <g id="Group_3698" data-name="Group 3698" transform="translate(0)">
    <g id="Group_3698-2" data-name="Group 3698" transform="translate(0 17.023)">
      <path id="Path_22" data-name="Path 22" d="M6.411,384.94l-.6-1.243a.335.335,0,0,0-.124-.139l-.008,0a.335.335,0,0,0-.341-.01,6.637,6.637,0,0,0-1.016.68l-1.149-2.2a.335.335,0,0,0-.483-.123l-2.545,1.7a.335.335,0,0,0,.025.572l1.875,1.031v2.071a.335.335,0,0,0,.506.289l3.724-2.2A.335.335,0,0,0,6.411,384.94Z" transform="translate(0 -381.848)" fill="#b32425"/>
      <path id="Path_23" data-name="Path 23" d="M374.159,383.608l-2.545-1.7a.335.335,0,0,0-.483.123l-1.149,2.2a6.634,6.634,0,0,0-1.017-.68.335.335,0,0,0-.341.01l-.008,0a.336.336,0,0,0-.124.139l-.6,1.243a.335.335,0,0,0,.132.434l3.724,2.2a.335.335,0,0,0,.506-.289v-2.071l1.875-1.031a.335.335,0,0,0,.025-.572Z" transform="translate(-351.418 -381.848)" fill="#b32425"/>
    </g>
    <g id="Group_3699" data-name="Group 3699" transform="translate(3.897 18.68)">
      <path id="Path_24" data-name="Path 24" d="M89.689,420.358l-.6-1.243a.338.338,0,0,0-.291-.19h-.027a.336.336,0,0,0-.162.042,5.321,5.321,0,0,0-1.354,1,.335.335,0,0,0,.2.551l1.876.318a.335.335,0,0,0,.358-.475Z" transform="translate(-87.175 -418.924)" fill="#8c1e23"/>
      <path id="Path_25" data-name="Path 25" d="M370.328,419.964a5.321,5.321,0,0,0-1.354-1,.336.336,0,0,0-.162-.042h-.027a.337.337,0,0,0-.291.19l-.6,1.243a.335.335,0,0,0,.358.475l1.876-.318a.335.335,0,0,0,.2-.551Z" transform="translate(-355.316 -418.924)" fill="#8c1e23"/>
    </g>
    <g id="Group_3700" data-name="Group 3700" transform="translate(2.049 14.538)">
      <path id="Path_26" data-name="Path 26" d="M48.72,326.467a.335.335,0,0,0-.445-.157,7.431,7.431,0,0,0-2.364,1.621.335.335,0,0,0-.042.373l1.848,3.531a.336.336,0,0,0,.257.177l.041,0a.337.337,0,0,0,.251-.113,3.756,3.756,0,0,1,.616-.508,8.046,8.046,0,0,1,2.017-.978.335.335,0,0,0,.137-.548A13.457,13.457,0,0,1,48.72,326.467Z" transform="translate(-45.83 -326.277)" fill="#e93234"/>
      <path id="Path_27" data-name="Path 27" d="M352.9,327.931a7.43,7.43,0,0,0-2.364-1.621.335.335,0,0,0-.445.157,13.458,13.458,0,0,1-2.316,3.4.335.335,0,0,0,.137.548,8.052,8.052,0,0,1,2.017.978,3.772,3.772,0,0,1,.615.507.335.335,0,0,0,.252.115l.04,0a.335.335,0,0,0,.258-.177l1.848-3.531A.335.335,0,0,0,352.9,327.931Z" transform="translate(-334.187 -326.277)" fill="#e93234"/>
      <path id="Path_28" data-name="Path 28" d="M352.9,327.931a7.43,7.43,0,0,0-2.364-1.621.335.335,0,0,0-.445.157,13.458,13.458,0,0,1-2.316,3.4.335.335,0,0,0,.137.548,8.052,8.052,0,0,1,2.017.978,3.772,3.772,0,0,1,.615.507.335.335,0,0,0,.252.115l.04,0a.335.335,0,0,0,.258-.177l1.848-3.531A.335.335,0,0,0,352.9,327.931Z" transform="translate(-334.187 -326.277)" fill="#e93234"/>
    </g>
    <g id="Group_3701" data-name="Group 3701" transform="translate(3.387 14.538)">
      <path id="Path_29" data-name="Path 29" d="M347.69,330.179a.335.335,0,0,1,.082-.312,13.448,13.448,0,0,0,2.316-3.4.335.335,0,0,1,.445-.157,10.137,10.137,0,0,1,1.107.609,14.818,14.818,0,0,1-1.132,1.911,13.042,13.042,0,0,1-1.673,1.951,9.221,9.221,0,0,0-.926-.365A.335.335,0,0,1,347.69,330.179Z" transform="translate(-335.523 -326.277)" fill="#b32425"/>
      <path id="Path_30" data-name="Path 30" d="M79.706,330.179a.335.335,0,0,0-.082-.312,13.453,13.453,0,0,1-2.316-3.4.335.335,0,0,0-.445-.157,10.128,10.128,0,0,0-1.107.609,14.833,14.833,0,0,0,1.132,1.911,13.045,13.045,0,0,0,1.673,1.951,9.221,9.221,0,0,1,.926-.365A.335.335,0,0,0,79.706,330.179Z" transform="translate(-75.757 -326.277)" fill="#b32425"/>
    </g>
    <path id="Path_31" data-name="Path 31" d="M70.363,4.79a.335.335,0,0,0-.3-.3,17.668,17.668,0,0,1-6.2-1.863,14.059,14.059,0,0,1-2.33-1.468.335.335,0,0,0-.43,0A17.243,17.243,0,0,1,52.58,4.491a.335.335,0,0,0-.3.3,24.672,24.672,0,0,0,.571,7.4,17.159,17.159,0,0,0,2.571,5.978A12.657,12.657,0,0,0,61.2,22.738a.335.335,0,0,0,.248,0,12.657,12.657,0,0,0,5.775-4.565,17.158,17.158,0,0,0,2.571-5.978A24.672,24.672,0,0,0,70.363,4.79Z" transform="translate(-49.877 -1.081)" fill="#f5ba3d"/>
    <path id="Path_32" data-name="Path 32" d="M239.838,75.411a.335.335,0,0,0-.3-.3c-.275-.028-.545-.064-.81-.1a26.117,26.117,0,0,1-.632,7.049,17.713,17.713,0,0,1-2.655,6.172,13.059,13.059,0,0,1-5.825,4.657q.513.257,1.056.474a.335.335,0,0,0,.248,0,12.657,12.657,0,0,0,5.775-4.565,17.158,17.158,0,0,0,2.571-5.978A24.672,24.672,0,0,0,239.838,75.411Z" transform="translate(-219.353 -71.703)" fill="#f2a325"/>
    <path id="Path_33" data-name="Path 33" d="M112.961,59.952a.335.335,0,0,0-.3-.3,13.1,13.1,0,0,1-6.453-2.52.335.335,0,0,0-.43,0,13.046,13.046,0,0,1-6.453,2.52.335.335,0,0,0-.3.3,18.883,18.883,0,0,0,.437,5.667,13.152,13.152,0,0,0,1.971,4.582,9.721,9.721,0,0,0,4.435,3.506.335.335,0,0,0,.248,0,9.72,9.72,0,0,0,4.435-3.506,13.149,13.149,0,0,0,1.971-4.582A18.881,18.881,0,0,0,112.961,59.952Z" transform="translate(-94.549 -54.553)" fill="#ffdb57"/>
    <path id="Path_34" data-name="Path 34" d="M171.208,181.658a.9.9,0,0,1-.638-.264l-2.051-2.051a.9.9,0,0,1,1.275-1.276l1.414,1.414,3.465-3.465a.9.9,0,1,1,1.275,1.275l-4.1,4.1A.9.9,0,0,1,171.208,181.658Z" transform="translate(-160.732 -167.943)" fill="#00b76c"/>
  </g>
</svg>
