<svg xmlns="http://www.w3.org/2000/svg" width="48" height="62" viewBox="0 0 48 62">
  <g id="teacher" transform="translate(-13 -1)">
    <path id="Path_18" data-name="Path 18" d="M29,23h6v2H29Z" fill="#fff"/>
    <path id="Path_19" data-name="Path 19" d="M58,27H57V24a3,3,0,0,0-6,0v3.184A3,3,0,0,0,49,30v2.343a4.969,4.969,0,0,0,1.465,3.536l.464.464-.76,4.559A19.008,19.008,0,0,0,36.82,30.156l-.4-1.6A7.009,7.009,0,0,0,40.92,23H41a3.995,3.995,0,0,0,3.332-6.206l.319-1.275A11.68,11.68,0,0,0,33.315,1H30.684A11.681,11.681,0,0,0,19.35,15.519l.319,1.276A3.993,3.993,0,0,0,23,23h.08a7.011,7.011,0,0,0,4.5,5.56l-.4,1.578A17.385,17.385,0,0,0,13,47.143V52A11.013,11.013,0,0,0,24,63h9a4,4,0,0,0,3.934-3.35A10.843,10.843,0,0,1,40.6,59H45V56.763l1.394,1.672A7.129,7.129,0,0,0,59,53.871V36.414l.535-.535A4.969,4.969,0,0,0,61,32.343V30a3,3,0,0,0-3-3Zm-4-4a1,1,0,0,1,1,1v3.184a2.989,2.989,0,0,0-1,.6,2.972,2.972,0,0,0-1-.6V24A1,1,0,0,1,54,23ZM32.869,55a2.855,2.855,0,0,0-5.277-.422l-.21.422H25V45h2.4A10.863,10.863,0,0,1,33,46.558V55ZM30.154,33.195l-2.727,2.181L26.238,32.4a15.36,15.36,0,0,1,1.615-.359ZM31.755,39h.491l1.645,5.758A12.854,12.854,0,0,0,30.5,43.385Zm.627-2h-.764l-.862-1.724L32,34.281l1.244.995Zm1.464-3.805,2.288-1.144c.546.11,1.081.246,1.607.4l-1.169,2.921ZM39,17a2,2,0,1,1-2-2A2,2,0,0,1,39,17Zm2,4V17a2,2,0,0,1,0,4ZM30.685,3h2.631a9.687,9.687,0,0,1,9.395,12.035l-.08.321A3.958,3.958,0,0,0,41,15h-.049a4.993,4.993,0,0,0-4.33-4.43l-.528-.066A3.537,3.537,0,0,1,33,7H31a5.538,5.538,0,0,0,4.844,5.488l.528.066a2.983,2.983,0,0,1,1.322.515A4.071,4.071,0,0,0,37,13a4,4,0,0,0-3.858,3H30.858a3.95,3.95,0,0,0-5.811-2.47,2.991,2.991,0,0,1,2.85-2.52,7.731,7.731,0,0,0,2.548,2.822l1.109-1.664A5.726,5.726,0,0,1,29,7.4V7H27V7.4a7.765,7.765,0,0,0,.195,1.687A5,5,0,0,0,23,14v1a3.958,3.958,0,0,0-1.631.356l-.08-.321A9.687,9.687,0,0,1,30.685,3ZM27,15a2,2,0,1,1-2,2A2,2,0,0,1,27,15Zm-6,4a2,2,0,0,1,2-2v4A2,2,0,0,1,21,19Zm4,3V20.444A3.953,3.953,0,0,0,30.858,18h2.284A3.953,3.953,0,0,0,39,20.444V22a5.006,5.006,0,0,1-5,5H30a5.006,5.006,0,0,1-5-5Zm5,7h4c.156,0,.31-.013.463-.023l.372,1.487L32,31.882l-2.835-1.418.372-1.487c.153.01.307.023.463.023ZM15,52V47.143A15.392,15.392,0,0,1,24.347,33.06l2.226,5.564,2.587-2.069.773,1.545-1.416,4.955C28.144,43.022,27.771,43,27.4,43H23V54.816A3,3,0,0,1,21,52V41H19V52a5.006,5.006,0,0,0,5,5h3v4H24A9.01,9.01,0,0,1,15,52Zm18,9H29V56.236l.382-.764A.854.854,0,0,1,31,55.854V57h2a2,2,0,0,1,0,4Zm10-4H40.6a12.819,12.819,0,0,0-3.872.6A4,4,0,0,0,35,55.556v-9A10.866,10.866,0,0,1,40.6,45H43Zm8.871,2a5.115,5.115,0,0,1-3.94-1.846L45,53.637V43h-4.4a12.871,12.871,0,0,0-4.864.956L34.068,38.1l.773-1.545,2.587,2.069,2.192-5.479A17.03,17.03,0,0,1,49.2,44.008l.291.989-1.473,8.839,1.973.328L52.847,37H57V53.871A5.135,5.135,0,0,1,51.871,59Zm6.25-24.535L57.586,35H52.414l-.535-.535A2.984,2.984,0,0,1,51,32.343V30a1,1,0,1,1,2,0,3,3,0,0,0,3,3h2.929A2.988,2.988,0,0,1,58.121,34.465ZM59,31H56a1,1,0,1,1,0-2h2a1,1,0,0,1,1,1Z" fill="#fff"/>
  </g>
</svg>
