<svg xmlns="http://www.w3.org/2000/svg" width="65.165" height="65.228" viewBox="0 0 65.165 65.228">
  <path id="student-icon" d="M63.9,22.842,34.675,11.821a5.225,5.225,0,0,0-3.689,0l-8.922,3.364S23.676,3.91,23.679,3.634c.008-.8-.47-1.928-2.791-2.763A17.559,17.559,0,0,0,15.322,0h-.041c-4-.041-8.3,1.008-8.38,3.4-.1,2.444.551,5.1.821,7.529a.956.956,0,0,0,1.9-.211L9.1,5.993a13.5,13.5,0,0,0,4.932,1.072V29.8h-2.29L10.2,15.935a.956.956,0,0,0-1.9.211l.45,4.059L1.757,22.842a2.4,2.4,0,0,0,0,4.457l7.524,2.837c-2.03,1.19-1.614,4.724.774,5.187L6.327,61.492c-.483,3.383,6.486,3.737,8.523,3.737,1.942,0,8.549-.295,8.157-3.569L21.078,45.622a33.847,33.847,0,0,0,26.134-1.353v7.078A3.775,3.775,0,0,0,44.4,54.992v5.578a.956.956,0,0,0,.955.955h5.626a.956.956,0,0,0,.955-.955V54.992a3.775,3.775,0,0,0-2.813-3.645V43.324q1.4-.738,2.791-1.6a.955.955,0,0,0,.452-.812V31.649L63.9,27.3a2.4,2.4,0,0,0,0-4.457ZM50.026,54.993v4.623H46.311V54.993a1.857,1.857,0,0,1,3.715,0ZM15.939,29.8V7.089a16.414,16.414,0,0,0,5.4-.933L19.96,16.509v.008L18.185,29.8ZM21.768,3.611c-.432,1.317-5.094,1.591-6.506,1.577-1.184-.012-6.878-.6-6.451-1.7C9.3,2.209,14.462,1.9,15.3,1.913,16.45,1.925,21.534,2.379,21.768,3.611ZM2.127,25.07a.453.453,0,0,1,.3-.44l6.537-2.465.673,6.064-7.21-2.719a.453.453,0,0,1-.3-.44ZM10.6,31.787c2.937,0,5.875-.029,8.811,0,.984.01.908,1.775-.018,1.764h-8.8C9.641,33.551,9.641,31.787,10.6,31.787ZM8.234,61.657l3.742-26.268,2,.02V63.286C10.6,63.094,8.378,62.108,8.234,61.657Zm7.65,1.648V35.427l2.047.021L21.1,61.781C20.937,62.236,19.257,63.181,15.883,63.3ZM63.229,25.511l-18.36,6.923a.957.957,0,0,0,.674,1.788l4.912-1.852v8.009C41.474,45.806,30.7,47.5,20.819,43.47l-.967-8.046a2.48,2.48,0,0,0,1.422-.766l9.712,3.662a5.308,5.308,0,0,0,3.69,0L40.306,36.2a.956.956,0,0,0-.674-1.788L34,36.531a3.315,3.315,0,0,1-2.341,0L22.023,32.9A2.733,2.733,0,0,0,20.1,29.963l1.678-12.628,9.882-3.726a3.317,3.317,0,0,1,2.341,0l12.4,4.674L32.347,24.189a.957.957,0,0,0,.741,1.762L49,19.264,63.229,24.63a.472.472,0,0,1,0,.881Z" transform="translate(-0.248 -0.001)" fill="#fff"/>
</svg>
